<svg xmlns="http://www.w3.org/2000/svg" width="256" height="256" viewBox="0 0 256 256">
  <defs>
    <linearGradient id="a" x1="50%" x2="50%" y1="100%" y2="0%">
      <stop offset="0%" stop-color="#35E476"/>
      <stop offset="100%" stop-color="#00EBA6"/>
    </linearGradient>
  </defs>
  <g fill="none" fill-rule="evenodd">
    <rect width="256" height="256" fill="#0C141D"/>
    <path stroke="url(#a)" stroke-width="5" d="M141.557156,154.392542 C141.508445,154.667157 141.491115,154.935381 141.504224,155.191687 C141.589428,156.857632 142.946111,157.823857 144.809273,157.403985 C150.869764,156.038217 155.397582,154.806898 158.360905,153.725413 C176.749758,147.014275 187.43294,136.035876 190.14585,120.741486 C192.286181,108.675089 184.597985,98.5 173.224636,98.5 C161.316175,98.5 149.644615,108.798421 146.656689,125.643251 L141.557156,154.392542 Z M101,42.5 C98.8986526,42.5 96.7644234,44.2895854 96.384615,46.3795806 L66.556895,210.514412 C66.2396409,212.260186 67.2676071,213.5 69.0160592,213.5 L101,213.5 C103.101347,213.5 105.235577,211.710415 105.615385,209.620419 L135.443105,45.4855879 C135.760359,43.7398143 134.732393,42.5 132.983941,42.5 L101,42.5 Z M143.674376,172.339845 C143.235087,171.813291 142.523071,171.5 141.643355,171.5 C139.516447,171.5 137.362869,173.294681 136.980704,175.384682 L130.557048,210.514676 C130.238497,212.256786 131.275674,213.5 133.049223,213.5 L168.780806,213.5 C169.783255,213.5 170.870715,213.087835 171.766735,212.341139 C173.556362,210.849756 173.960084,208.641858 172.982304,207.469839 L143.674376,172.339845 Z"/>
  </g>
</svg>
