<svg xmlns="http://www.w3.org/2000/svg" width="256" height="256" viewBox="0 0 256 256">
  <defs>
    <linearGradient id="a" x1="50%" x2="50%" y1="50%" y2="100%">
      <stop offset="0%" stop-color="#00EBA6"/>
      <stop offset="100%" stop-color="#35E576"/>
    </linearGradient>
  </defs>
  <g fill="none" fill-rule="evenodd">
    <rect width="256" height="256" fill="#0C141D"/>
    <path fill="url(#a)" d="M139.095581,153.955909 L144.195114,125.206618 C147.767978,105.064123 162.11202,96 173.224636,96 C186.396003,96 194.975311,107.828848 192.607425,121.178119 C189.661836,137.784265 177.947795,149.238333 159.218001,156.073899 C156.134501,157.199243 151.514794,158.455551 145.358879,159.842823 C142.017387,160.595844 139.173772,158.570632 139.007487,155.319382 C138.98462,154.872283 139.014175,154.414843 139.095581,153.955909 Z M101,40 L132.983941,40 C136.295986,40 138.498243,42.6561085 137.902819,45.9325843 L108.075099,210.067416 C107.479675,213.343892 104.312046,216 101,216 L69.0160592,216 C65.7040137,216 63.5017568,213.343892 64.0971807,210.067416 L93.9249007,45.9325843 C94.5203247,42.6561085 97.6879545,40 101,40 Z M145.594044,170.738322 L174.901971,205.868316 C176.835613,208.186079 176.148478,211.943915 173.367213,214.261678 C172.031602,215.374707 170.381822,216 168.780806,216 L133.049223,216 C129.71528,216 127.498463,213.342809 128.097823,210.064997 L134.521479,174.935003 C135.120839,171.657191 138.309412,169 141.643355,169 C143.244371,169 144.665476,169.625293 145.594044,170.738322 Z"/>
  </g>
</svg>
